HIERARCHY
ROOT root
{
	OFFSET 0.000000 0.000000 0.000000
	CHANNELS 6 Xposition Yposition Zposition Zrotation Yrotation Xrotation
	JOINT lhip
	{
		OFFSET 0.058581 -0.082280 -0.017664
		CHANNELS 3 Zrotation Yrotation Xrotation
		JOINT lknee
		{
			OFFSET 0.043451 -0.386469 0.008037
			CHANNELS 3 Zrotation Yrotation Xrotation
			JOINT lankle
			{
				OFFSET -0.014790 -0.426874 -0.037428
				CHANNELS 3 Zrotation Yrotation Xrotation
				JOINT ltoe
				{
					OFFSET 0.041054 -0.060286 0.122042
					CHANNELS 3 Zrotation Yrotation Xrotation
					End Site
					{
						OFFSET 0.000000 0.000000 0.000000
					}
				}
			}
		}
	}
	JOINT rhip
	{
		OFFSET -0.060310 -0.090513 -0.013543
		CHANNELS 3 Zrotation Yrotation Xrotation
		JOINT rknee
		{
			OFFSET -0.043257 -0.383688 -0.004843
			CHANNELS 3 Zrotation Yrotation Xrotation
			JOINT rankle
			{
				OFFSET 0.019056 -0.420046 -0.034562
				CHANNELS 3 Zrotation Yrotation Xrotation
				JOINT rtoe
				{
					OFFSET -0.034840 -0.062106 0.130323
					CHANNELS 3 Zrotation Yrotation Xrotation
					End Site
					{
						OFFSET 0.000000 0.000000 0.000000
					}
				}
			}
		}
	}
	JOINT lowerback
	{
		OFFSET 0.004439 0.124404 -0.038385
		CHANNELS 3 Zrotation Yrotation Xrotation
		JOINT upperback
		{
			OFFSET 0.004488 0.137956 0.026820
			CHANNELS 3 Zrotation Yrotation Xrotation
			JOINT chest
			{
				OFFSET -0.002265 0.056032 0.002855
				CHANNELS 3 Zrotation Yrotation Xrotation
				JOINT lowerneck
				{
					OFFSET -0.013390 0.211636 -0.033468
					CHANNELS 3 Zrotation Yrotation Xrotation
					JOINT upperneck
					{
						OFFSET 0.010113 0.088937 0.050410
						CHANNELS 3 Zrotation Yrotation Xrotation
						End Site
						{
							OFFSET 0.000000 0.000000 0.000000
						}
					}
				}
				JOINT lclavicle
				{
					OFFSET 0.071702 0.114000 -0.018898
					CHANNELS 3 Zrotation Yrotation Xrotation
					JOINT lshoulder
					{
						OFFSET 0.122921 0.045205 -0.019046
						CHANNELS 3 Zrotation Yrotation Xrotation
						JOINT lelbow
						{
							OFFSET 0.255332 -0.015649 -0.022946
							CHANNELS 3 Zrotation Yrotation Xrotation
							JOINT lwrist
							{
								OFFSET 0.265709 0.012698 -0.007375
								CHANNELS 3 Zrotation Yrotation Xrotation
								End Site
								{
									OFFSET 0.000000 0.000000 0.000000
								}
							}
						}
					}
				}
				JOINT rclavicle
				{
					OFFSET -0.082954 0.112472 -0.023707
					CHANNELS 3 Zrotation Yrotation Xrotation
					JOINT rshoulder
					{
						OFFSET -0.113228 0.046853 -0.008472
						CHANNELS 3 Zrotation Yrotation Xrotation
						JOINT relbow
						{
							OFFSET -0.260127 -0.014369 -0.031269
							CHANNELS 3 Zrotation Yrotation Xrotation
							JOINT rwrist
							{
								OFFSET -0.269108 0.006794 -0.006027
								CHANNELS 3 Zrotation Yrotation Xrotation
								End Site
								{
									OFFSET 0.000000 0.000000 0.000000
								}
							}
						}
					}
				}
			}
		}
	}
}
MOTION
Frames: 7
Frame Time: 0.033333
0.001107 0.239271 1.006749 85.468643 -0.240062 93.494024 5.466615 0.338800 -10.102836 -3.847106 -3.026942 12.378232 -2.248885 13.459005 -8.271234 0.000000 -0.000000 0.000000 -5.618181 -0.395138 -11.347746 1.337968 6.951432 10.747706 7.034141 -10.287390 -3.908251 0.000000 -0.000000 0.000000 -0.239674 0.798080 7.620463 -0.982890 1.000673 1.392521 -0.994985 3.540338 -3.079383 1.295843 1.320275 -9.658436 -0.590395 -3.645361 -12.524144 -15.822429 -4.473302 3.351199 -13.473874 -0.653403 32.192699 -116.434656 -54.833863 137.773094 0.446166 -26.611243 -11.799255 11.853731 19.245939 -3.403070 -12.678938 21.360600 -18.144939 -8.951525 23.326163 -31.893463 -7.938328 5.038596 -9.785155 
0.001264 0.238965 1.007045 85.460714 -0.348148 92.650603 5.375438 0.763173 -8.860521 -3.809063 -3.101120 11.741398 -2.642672 13.049978 -7.905695 0.000000 -0.000000 0.000000 -5.730102 -0.494544 -10.176397 1.259835 6.737235 10.209350 6.939716 -9.868727 -3.646781 0.000000 -0.000000 0.000000 -0.162164 0.761739 7.695829 -1.254227 0.649798 3.808936 -0.844678 3.209443 -3.157417 0.895901 1.562403 -9.181112 -0.236796 -2.640327 -16.245448 -15.240303 -5.069273 3.811930 -13.705566 -0.844403 29.251389 -119.803359 -58.585362 141.381488 -1.459459 -25.880709 -12.200155 10.797204 19.790634 -3.543871 -11.185162 21.776787 -18.143952 -10.625640 25.781514 -32.367462 -7.562973 4.851392 -12.035698 
-0.001355 0.238963 1.007068 86.114567 -0.471044 91.357203 5.273741 0.857632 -7.805619 -3.798283 -3.679830 11.717439 -3.096956 12.778271 -7.523597 0.000000 -0.000000 0.000000 -5.789970 -0.835167 -8.939240 1.163370 6.352389 10.256163 6.735979 -9.710841 -3.709905 0.000000 -0.000000 0.000000 0.263819 0.822572 9.265229 -1.737261 0.111398 5.000461 -0.817439 2.888290 -2.859551 0.315239 1.084985 -9.252937 0.601448 -1.820570 -18.327861 -14.559526 -7.404951 3.755679 -13.505422 -1.602822 25.899761 -122.090884 -66.007029 141.522752 0.593323 -24.932390 -15.127289 9.067981 21.290073 -3.855708 -9.468413 21.716805 -17.966619 -12.248616 25.543706 -33.725362 -8.407663 4.361344 -13.746968 
-0.006440 0.239013 1.007001 86.986255 -0.622897 90.451489 5.160675 0.980022 -7.736032 -3.822212 -4.293139 12.380419 -3.450125 12.432721 -7.297371 0.000000 -0.000000 0.000000 -5.768760 -1.205006 -8.660127 0.974924 6.023710 11.096508 6.456953 -9.770090 -3.877445 0.000000 -0.000000 0.000000 0.621122 0.758757 11.169473 -2.108690 -0.259057 5.062787 -0.747918 2.602612 -2.420688 -0.449719 0.914924 -9.926628 1.165276 -1.150958 -18.446131 -13.854315 -10.237669 2.922534 -13.742619 -3.696466 21.769541 -118.017753 -76.403389 133.012892 5.081317 -22.823692 -20.444053 7.850467 23.083461 -4.356730 -8.946092 22.496284 -18.871165 -12.515877 23.155560 -34.911281 -10.413647 3.296720 -15.977808 
-0.014184 0.239090 1.007478 88.228563 -0.706921 90.202516 5.010271 0.910332 -8.882931 -3.712699 -4.662409 13.528699 -3.633727 11.858890 -6.923835 0.000000 -0.000000 0.000000 -5.670100 -1.655426 -9.268661 0.711526 5.313139 12.105521 6.148344 -9.747834 -3.868236 0.000000 -0.000000 0.000000 1.057144 0.539333 12.980150 -2.348511 -0.858944 4.781737 -0.707644 2.287297 -2.076089 -1.208187 1.666106 -10.947389 1.157969 -0.186306 -18.565101 -13.228782 -13.172514 1.258914 -14.421193 -7.479488 16.577888 -47.307240 -85.515998 58.571199 7.451577 -19.946486 -23.988184 6.952360 24.655419 -5.126621 -8.745702 24.342428 -20.809678 -13.219545 20.272297 -35.628488 -11.081742 2.153688 -18.449494 
-0.022685 0.238315 1.007937 89.045741 -0.684035 90.477504 4.995982 0.844136 -10.309972 -3.488611 -4.649929 14.229781 -3.713971 11.229676 -6.354612 0.000000 -0.000000 0.000000 -5.391320 -1.807191 -10.391169 0.395067 4.735066 12.849774 5.845264 -9.692611 -3.721189 0.000000 -0.000000 0.000000 1.317819 0.342056 14.603641 -2.589819 -1.317559 4.229331 -0.565224 2.169456 -1.946444 -2.040488 1.968467 -12.386502 1.685947 0.690273 -18.252515 -12.448436 -16.424035 -0.779071 -15.750953 -11.978619 11.138430 20.108211 -74.267095 -14.287852 10.232058 -16.078125 -28.339641 6.040956 26.184341 -5.585914 -8.365089 26.003205 -22.581623 -14.541126 18.448370 -37.027402 -12.208816 1.049454 -20.753621 
-0.030350 0.237384 1.008305 89.287439 -0.586371 91.141603 5.159865 0.960113 -11.617106 -3.304132 -4.363770 14.220230 -3.755658 10.610461 -5.650309 0.000000 -0.000000 0.000000 -5.128086 -1.744430 -11.735205 0.256725 4.177457 13.105345 5.531037 -9.393874 -3.453851 0.000000 -0.000000 0.000000 1.427508 0.205004 16.280360 -2.955422 -1.528458 3.128371 -0.289967 1.911699 -2.082011 -2.536367 2.262987 -14.032543 2.230785 1.984568 -17.802202 -12.177106 -19.677454 -2.460605 -16.214656 -16.259359 5.601069 29.361788 -60.214301 -29.773570 12.416221 -12.953130 -31.758949 5.112588 27.657166 -6.066793 -7.521106 27.767711 -23.856109 -15.995478 16.886456 -39.551747 -12.809083 0.748469 -24.159957 
